<svg id="点赞" xmlns="http://www.w3.org/2000/svg" width="20" height="20" viewBox="0 0 20 20">
  <rect id="矩形_21" data-name="矩形 21" width="20" height="20" transform="translate(0 0)" fill="none"/>
  <path id="路径_10" data-name="路径 10" d="M98.7,71.073h2.094a.708.708,0,0,1,.693.718V83.948a.708.708,0,0,1-.693.718H98.7A.708.708,0,0,1,98,83.948V71.792A.708.708,0,0,1,98.7,71.073Zm16.57.065h-4.273a.76.76,0,0,1-.706-.984l.481-1.664a.773.773,0,0,0,.025-.117c.4-3.11-2.05-4.136-2.617-3.548a3.046,3.046,0,0,0-.87,1.353,18.234,18.234,0,0,1-1.67,4.542.734.734,0,0,1-.657.418h-1.284a.753.753,0,0,0-.737.764v12a.753.753,0,0,0,.737.764h11.572A.753.753,0,0,0,116,83.9v-12A.753.753,0,0,0,115.267,71.138Z" transform="translate(-96.004 -64.667)" fill="#ff9e9a"/>
</svg>
