<svg xmlns="http://www.w3.org/2000/svg" xmlns:xlink="http://www.w3.org/1999/xlink" width="375" height="667" viewBox="0 0 375 667">
  <defs>
    <filter id="南窗" x="148" y="321" width="75" height="47" filterUnits="userSpaceOnUse">
      <feOffset dy="1" input="SourceAlpha"/>
      <feGaussianBlur result="blur"/>
      <feFlood flood-opacity="0.149"/>
      <feComposite operator="in" in2="blur"/>
      <feComposite in="SourceGraphic"/>
    </filter>
    <filter id="这是一句文案" x="136" y="627" width="104" height="21" filterUnits="userSpaceOnUse">
      <feOffset dy="1" input="SourceAlpha"/>
      <feGaussianBlur result="blur-2"/>
      <feFlood flood-opacity="0.149"/>
      <feComposite operator="in" in2="blur-2"/>
      <feComposite in="SourceGraphic"/>
    </filter>
    <clipPath id="clip-启动页">
      <rect width="375" height="667"/>
    </clipPath>
  </defs>
  <g id="启动页" clip-path="url(#clip-启动页)">
    <rect width="375" height="667" fill="#fff"/>
    <path id="Path_41" data-name="Path 41" d="M378,523.4S261.8,314.6,133.8,273.8,2.6,37,2.6,37V667.4H378Z" transform="translate(-3)" fill="#ffe7e7"/>
    <g transform="matrix(1, 0, 0, 1, 0, 0)" filter="url(#南窗)">
      <text id="南窗-2" data-name="南窗" transform="translate(148 358)" fill="#ff9e9a" font-size="34" font-family="YuGothicUI-Regular, Yu Gothic UI" letter-spacing="0.2em"><tspan x="0" y="0">南窗</tspan></text>
    </g>
    <g id="组_9" data-name="组 9" transform="translate(-180.733 -359.43)">
      <g id="Group_12" data-name="Group 12" transform="translate(302.568 502.265)" opacity="0.5" style="mix-blend-mode: multiply;isolation: isolate">
        <path id="路径_20" data-name="路径 20" d="M376.193,539.255c-.851-.064-8.584-.1-9.247-.054-35.865,2.153-64.378,31.627-64.378,67.551a66.614,66.614,0,0,0,20.313,48.069c.244.24.493.482.741.718a69.283,69.283,0,0,0,90.065,4.31c.861-.672,1.712-1.372,2.541-2.09s1.652-1.454,2.453-2.217c.069-.068.142-.136.211-.2.179-.168.359-.34.534-.518a66.607,66.607,0,0,0,20.307-48.069C439.736,571.105,411.672,541.808,376.193,539.255ZM412.3,648.99c-.248.236-.5.468-.75.695h0c-.184.172-.372.34-.562.5-.225.209-.452.408-.681.6-.2.177-.409.354-.617.527-.11.1-.225.19-.34.281-.193.163-.386.327-.585.477-.239.2-.479.39-.723.582-.069.059-.143.113-.216.168-.257.2-.521.4-.783.6-.207.159-.414.313-.622.455-.161.123-.317.24-.479.349-.17.127-.345.249-.521.367-.211.154-.429.3-.645.45-.2.136-.4.272-.6.4q-.263.177-.539.354c-.207.132-.414.268-.626.4s-.4.259-.612.381c-.161.1-.326.2-.493.3-.225.141-.456.277-.686.4-.2.122-.4.24-.608.349s-.415.236-.622.349c-.161.086-.322.177-.488.263-.234.127-.475.254-.709.377-.216.113-.429.222-.645.327-.248.127-.493.25-.741.367-.11.055-.221.109-.336.163-.244.118-.493.236-.741.349-.28.132-.562.259-.847.381a.977.977,0,0,1-.156.068c-.392.177-.783.34-1.178.5s-.8.331-1.2.486c-.06.023-.12.05-.184.073-.386.15-.783.3-1.173.436s-.769.277-1.155.4c-.189.064-.382.132-.58.191l-.672.218c-.23.073-.461.145-.695.209-.207.068-.419.127-.631.186-.349.1-.7.2-1.054.29a1.167,1.167,0,0,1-.175.05c-.239.064-.479.127-.718.181-.3.082-.612.159-.92.227-.4.1-.81.191-1.219.277-.207.041-.415.086-.622.122-.271.059-.539.113-.81.163-.428.082-.861.154-1.289.227-.179.027-.359.059-.539.082-.322.054-.645.1-.971.145q-1.319.183-2.642.309c-.475.045-.948.086-1.427.118s-.953.064-1.436.086c-.957.045-1.915.068-2.881.068s-1.924-.023-2.881-.068c-.484-.023-.957-.05-1.436-.086s-.948-.073-1.423-.118q-1.325-.123-2.646-.309c-.326-.045-.649-.091-.971-.145-.179-.023-.359-.054-.539-.082q-1-.164-2-.367c-.244-.045-.484-.1-.727-.15-.4-.086-.815-.177-1.215-.272-.29-.063-.576-.136-.861-.209-.262-.064-.52-.127-.778-.2a1,1,0,0,1-.152-.041c-.382-.1-.76-.2-1.136-.313-.143-.041-.285-.082-.429-.132-.285-.077-.571-.168-.851-.254-.221-.068-.442-.141-.658-.213-.2-.059-.391-.127-.58-.191-.386-.127-.773-.263-1.155-.4s-.787-.286-1.173-.436c-.064-.023-.124-.05-.184-.073-.368-.141-.737-.29-1.1-.446a1.856,1.856,0,0,1-.175-.073c-.34-.136-.677-.281-1.012-.431-.1-.041-.193-.082-.29-.127-.271-.118-.539-.237-.8-.363s-.5-.231-.741-.349l-.3-.15c-.294-.136-.585-.281-.874-.432l-.433-.218q-.421-.218-.842-.45c-.156-.081-.313-.163-.465-.25-.207-.112-.415-.226-.622-.349s-.4-.226-.608-.348c-.23-.128-.461-.263-.686-.4-.152-.086-.3-.177-.456-.277q-.4-.237-.8-.495c-.11-.068-.225-.141-.336-.213-.244-.154-.488-.313-.727-.477q-.276-.177-.553-.367c-.216-.145-.433-.3-.645-.45-.175-.118-.349-.24-.521-.367-.161-.109-.317-.227-.479-.349-.207-.145-.414-.3-.622-.455-.262-.2-.525-.4-.782-.6-.074-.054-.147-.109-.216-.169-.244-.19-.484-.38-.723-.582-.2-.15-.392-.312-.585-.477-.115-.091-.23-.185-.34-.281-.207-.172-.414-.349-.617-.527-.23-.2-.456-.4-.681-.6-.189-.163-.377-.33-.562-.5h0c-.253-.226-.5-.459-.75-.694a58.991,58.991,0,0,1-10.959-14.071,57.6,57.6,0,0,1-7.268-28.171c0-30.927,24.413-56.34,55.221-58.448q2.057-.144,4.156-.145t4.184.145c30.8,2.126,55.193,27.534,55.193,58.448a57.592,57.592,0,0,1-7.268,28.171A58.959,58.959,0,0,1,412.3,648.994Z" transform="translate(-302.568 -502.265)" fill="#acabab"/>
        <path id="路径_21" data-name="路径 21" d="M407.9,580.906a51.616,51.616,0,0,0-45.113-14.7,52.342,52.342,0,0,0-43.669,51.681V634.6a52.124,52.124,0,0,0,3.475,18.76l.359.934.009.023.731.708a68.163,68.163,0,0,0,89.926,4.389c.859-.689,1.71-1.4,2.537-2.128s1.65-1.485,2.45-2.262l.211-.2.524-.5.009-.023.359-.934a52.123,52.123,0,0,0,3.47-18.76V617.888A52.143,52.143,0,0,0,407.9,580.906Zm3.59,68.17c-.184.176-.373.347-.561.513-.225.208-.451.412-.68.615-.2.18-.409.361-.616.537-.11.1-.225.194-.341.287-.193.167-.386.333-.584.486-.239.2-.478.4-.721.592-.069.06-.142.116-.216.171-.257.208-.52.412-.781.61-.207.162-.414.314-.62.463-.161.125-.317.245-.478.356-.17.13-.345.254-.52.375-.211.157-.428.31-.643.458-.2.139-.4.278-.6.412q-.261.18-.538.361c-.206.134-.414.273-.625.4s-.4.264-.611.389c-.161.1-.327.2-.492.3-.225.143-.455.282-.685.412-.2.125-.4.245-.607.356s-.414.24-.62.356c-.161.088-.322.18-.487.268-.234.13-.474.259-.708.384-.216.116-.428.227-.643.333-.248.13-.492.254-.74.375-.11.056-.22.111-.336.167-.243.12-.492.24-.74.356-.28.134-.561.264-.845.388a1.09,1.09,0,0,1-.156.069c-.391.18-.781.347-1.177.513s-.8.338-1.2.495c-.06.023-.119.051-.184.074q-.578.228-1.172.444c-.382.143-.767.278-1.154.412-.188.065-.382.134-.579.194l-.671.222c-.229.074-.46.143-.694.213-.206.069-.419.129-.63.19-.35.106-.7.2-1.053.3a1.25,1.25,0,0,1-.174.051c-.239.065-.478.129-.717.185-.3.083-.611.162-.919.231-.4.1-.809.194-1.218.282-.206.042-.414.088-.62.125-.271.06-.538.116-.809.167-.428.083-.859.157-1.287.231-.179.028-.359.06-.538.083-.322.055-.643.1-.97.148q-1.316.186-2.638.315c-.474.046-.947.088-1.424.12s-.952.065-1.434.088c-.955.046-1.912.069-2.877.069s-1.921-.023-2.877-.069c-.483-.023-.956-.051-1.434-.088s-.947-.074-1.42-.12q-1.322-.126-2.642-.315c-.327-.046-.648-.093-.97-.148-.179-.023-.359-.056-.538-.083-.666-.111-1.333-.236-1.994-.375-.243-.046-.483-.1-.726-.153q-.607-.132-1.213-.278c-.289-.065-.575-.139-.859-.213-.262-.065-.52-.134-.776-.2a.993.993,0,0,1-.151-.042c-.382-.1-.758-.208-1.135-.319-.142-.042-.284-.083-.428-.134-.284-.083-.57-.171-.85-.259-.22-.069-.441-.143-.657-.217-.2-.06-.391-.13-.579-.194-.386-.134-.772-.268-1.154-.412s-.786-.291-1.172-.444c-.064-.023-.124-.051-.184-.074-.368-.143-.735-.3-1.1-.453a1.841,1.841,0,0,1-.174-.074c-.341-.139-.676-.287-1.011-.439-.1-.042-.193-.083-.289-.13-.271-.12-.538-.245-.8-.37-.248-.116-.5-.236-.74-.356-.1-.051-.2-.1-.3-.153-.294-.139-.584-.287-.873-.439l-.432-.222q-.421-.222-.841-.458c-.156-.083-.312-.167-.464-.254-.207-.116-.414-.231-.621-.356s-.4-.231-.607-.356c-.229-.129-.46-.268-.685-.412-.151-.088-.3-.18-.455-.282q-.4-.243-.8-.5c-.11-.069-.225-.143-.336-.217-.243-.157-.487-.319-.726-.486q-.275-.18-.552-.375c-.216-.148-.432-.3-.643-.458-.174-.12-.35-.245-.52-.375-.161-.111-.318-.231-.478-.356-.206-.148-.414-.3-.62-.463-.262-.2-.524-.4-.781-.61-.073-.056-.147-.111-.216-.171-.243-.194-.483-.388-.721-.592-.2-.153-.391-.319-.584-.486-.115-.092-.229-.19-.341-.287-.206-.176-.414-.356-.616-.537-.229-.2-.455-.407-.68-.615-.188-.167-.377-.338-.561-.513h0a42.855,42.855,0,0,1-2.5-14.467v-16.73a43.132,43.132,0,0,1,32.429-41.821,43.017,43.017,0,0,1,53.243,41.821V634.6a42.83,42.83,0,0,1-2.5,14.467Z" transform="translate(-302.568 -502.099)" fill="#acabab"/>
        <path id="路径_22" data-name="路径 22" d="M375.853,543.862H366.6c0-16.885,8.5-21.9,12.584-24.3l.382-.226c-.761-4.639-2.069-7.639-8.466-7.812a6.25,6.25,0,0,0-6.345,3.829,15.253,15.253,0,0,0-1.448,5.289l-9.239-.455c.3-6.348,4.284-18.266,17.281-17.909,15.158.41,16.88,12.287,17.528,16.759.034.232.066.454.1.662.681,4.427-2.933,6.558-5.093,7.832C380.307,529.635,375.853,532.262,375.853,543.862Z" transform="translate(-302.484 -502.265)" fill="#acabab"/>
        <path id="路径_23" data-name="路径 23" d="M389.1,621.33l-18.963,38.3-18.963-38.3,9.431-45.257,2.054-9.861,4.241-20.374h8.381L379,566.128l1.785,9.759,3.316,18.121-6.471,1.258a3.006,3.006,0,0,0,1.013,5.926l.134-.026,6.41-1.244.86,4.708-6.262,1.216a3.015,3.015,0,0,0-2.433,2.951,3.076,3.076,0,0,0,.055.574,3.016,3.016,0,0,0,3.524,2.377l6.2-1.207Z" transform="translate(-302.487 -502.099)" fill="#acabab"/>
      </g>
      <g id="Group_13" data-name="Group 13" transform="translate(299.733 499.43)">
        <path id="路径_20-2" data-name="路径 20" d="M373.358,536.42c-.851-.064-8.584-.1-9.247-.054-35.865,2.153-64.378,31.627-64.378,67.551a66.616,66.616,0,0,0,20.313,48.069c.244.24.493.482.741.718a69.283,69.283,0,0,0,90.065,4.31c.861-.672,1.712-1.372,2.541-2.09s1.652-1.454,2.453-2.217c.069-.068.142-.136.211-.2.179-.168.359-.34.534-.518A66.6,66.6,0,0,0,436.9,603.921C436.9,568.27,408.837,538.973,373.358,536.42Zm36.11,109.735c-.247.236-.5.468-.75.695h0c-.183.172-.372.34-.562.5-.225.209-.451.409-.68.6-.2.177-.409.354-.617.527-.11.1-.226.19-.34.281-.193.163-.386.327-.586.477-.239.2-.479.391-.722.582-.069.059-.143.113-.216.168-.257.2-.521.4-.784.6-.207.159-.415.313-.622.455-.161.123-.316.24-.479.349-.17.127-.345.249-.52.367-.211.154-.43.3-.646.45-.2.136-.4.272-.6.4-.174.118-.354.236-.539.354-.207.132-.414.268-.626.4s-.4.259-.612.381c-.161.1-.325.2-.493.3-.225.141-.455.277-.686.4-.2.122-.4.24-.607.349s-.415.236-.623.349c-.161.086-.321.177-.488.263-.234.127-.475.254-.709.377-.216.113-.428.222-.645.327-.248.127-.493.25-.741.367-.109.055-.221.109-.336.163-.243.118-.493.236-.741.349q-.419.2-.847.381a.947.947,0,0,1-.156.068c-.391.177-.783.34-1.178.5s-.8.331-1.2.486c-.06.023-.12.05-.184.073-.386.15-.783.3-1.173.437s-.769.277-1.155.4c-.189.064-.381.132-.58.191l-.672.218c-.23.073-.46.145-.695.209-.207.068-.418.127-.631.186-.349.1-.7.2-1.054.29a1.133,1.133,0,0,1-.175.05c-.239.064-.479.127-.718.181-.3.082-.612.159-.92.227-.4.1-.81.191-1.219.277-.207.041-.415.086-.622.122-.271.059-.539.113-.81.163-.429.082-.86.154-1.288.227-.179.027-.36.059-.539.082-.322.054-.646.1-.971.145q-1.319.185-2.642.309c-.475.045-.948.086-1.427.118s-.953.064-1.436.086c-.957.045-1.915.068-2.881.068s-1.924-.023-2.882-.068c-.484-.023-.957-.05-1.436-.086s-.948-.073-1.423-.118q-1.326-.123-2.646-.309c-.326-.045-.649-.091-.971-.145-.179-.023-.359-.054-.539-.082q-1-.164-2-.367c-.244-.045-.484-.1-.727-.15-.4-.086-.815-.177-1.215-.272-.29-.063-.576-.136-.861-.209-.262-.064-.52-.127-.778-.2a.878.878,0,0,1-.152-.041c-.383-.1-.76-.2-1.136-.313-.143-.041-.285-.082-.429-.132-.285-.077-.571-.168-.851-.254-.221-.068-.442-.141-.658-.213-.2-.059-.391-.127-.58-.191-.386-.127-.773-.263-1.155-.4s-.787-.286-1.173-.437c-.064-.023-.124-.05-.184-.073-.368-.141-.737-.29-1.1-.446a1.852,1.852,0,0,1-.175-.073c-.34-.136-.677-.281-1.012-.432-.1-.041-.193-.082-.29-.127-.271-.118-.539-.236-.8-.363s-.5-.231-.741-.349l-.3-.15c-.294-.136-.585-.281-.874-.432l-.433-.218q-.422-.219-.842-.45c-.156-.082-.313-.163-.465-.25-.207-.113-.415-.227-.622-.349s-.4-.227-.608-.349c-.23-.127-.461-.263-.686-.4-.152-.086-.3-.177-.456-.277-.267-.159-.534-.323-.8-.495-.11-.068-.225-.141-.336-.213-.244-.154-.488-.313-.727-.477q-.276-.177-.553-.367c-.216-.145-.433-.3-.645-.45-.175-.118-.349-.24-.521-.367-.161-.109-.317-.227-.479-.349-.207-.145-.414-.3-.622-.455-.262-.2-.525-.4-.782-.6-.074-.054-.147-.109-.216-.168-.244-.191-.484-.381-.723-.582-.2-.15-.391-.313-.585-.477-.115-.091-.23-.186-.34-.281-.207-.172-.414-.349-.617-.527-.23-.2-.456-.4-.681-.6-.189-.163-.377-.331-.562-.5h0c-.253-.227-.5-.458-.75-.695a58.945,58.945,0,0,1-10.959-14.071,57.592,57.592,0,0,1-7.268-28.171c0-30.927,24.413-56.34,55.221-58.448q2.057-.143,4.156-.145t4.184.145c30.8,2.126,55.193,27.534,55.193,58.448a57.613,57.613,0,0,1-7.268,28.171,58.967,58.967,0,0,1-10.975,14.084Z" transform="translate(-299.733 -499.43)" fill="#ff9e9a"/>
        <path id="路径_21-2" data-name="路径 21" d="M405.065,578.071a51.615,51.615,0,0,0-45.113-14.7,52.344,52.344,0,0,0-43.669,51.681v16.715a52.168,52.168,0,0,0,3.475,18.76l.359.934.009.023.731.708a68.162,68.162,0,0,0,89.926,4.389c.859-.689,1.71-1.4,2.537-2.128s1.65-1.485,2.45-2.262l.211-.2.524-.5.009-.023.359-.934a52.1,52.1,0,0,0,3.47-18.76V615.053A52.139,52.139,0,0,0,405.065,578.071Zm3.59,68.17c-.183.176-.373.347-.561.513-.225.208-.451.412-.679.615-.2.18-.409.361-.616.537-.11.1-.225.194-.341.287-.193.167-.386.333-.584.486-.239.2-.478.4-.721.592-.069.06-.142.116-.216.171-.257.208-.52.412-.781.61-.207.162-.414.314-.62.463-.161.125-.318.245-.478.356-.17.13-.345.254-.52.375-.211.157-.428.31-.643.458s-.4.278-.6.412q-.263.18-.538.361c-.206.134-.414.273-.625.4s-.4.264-.611.389c-.161.1-.327.2-.492.3-.225.143-.455.282-.685.412-.2.125-.4.245-.607.356s-.414.24-.62.356c-.161.088-.322.18-.487.268-.234.13-.474.259-.708.384-.216.116-.428.227-.643.333-.248.13-.492.254-.74.375-.11.056-.22.111-.336.167-.243.12-.492.24-.74.356-.28.134-.561.264-.845.388a.9.9,0,0,1-.156.069c-.391.18-.781.347-1.177.513s-.8.338-1.2.495c-.06.023-.119.051-.184.074q-.58.23-1.172.444c-.382.143-.767.278-1.154.412-.188.065-.382.134-.579.194l-.671.222c-.229.074-.46.143-.694.213-.206.069-.419.129-.63.19-.35.106-.7.2-1.053.3a1.083,1.083,0,0,1-.174.051c-.239.065-.478.129-.717.185-.3.083-.611.162-.919.231-.4.1-.809.194-1.218.282-.206.042-.414.088-.62.125-.271.06-.538.116-.809.167-.428.083-.859.157-1.287.231-.179.028-.359.06-.538.083-.322.055-.643.1-.97.148q-1.318.188-2.638.315c-.474.046-.947.088-1.424.12s-.951.065-1.434.088c-.956.046-1.912.069-2.877.069s-1.921-.023-2.877-.069c-.483-.023-.956-.051-1.434-.088s-.947-.074-1.42-.12q-1.324-.125-2.642-.315c-.327-.046-.648-.093-.97-.148-.179-.023-.359-.056-.538-.083-.666-.111-1.333-.236-1.994-.375-.243-.046-.483-.1-.726-.153q-.607-.132-1.213-.278c-.289-.065-.575-.139-.859-.213-.262-.065-.52-.134-.776-.2a.967.967,0,0,1-.151-.042c-.382-.1-.758-.208-1.135-.319-.142-.042-.284-.083-.428-.134-.284-.083-.57-.171-.85-.259-.22-.069-.441-.143-.657-.217-.2-.06-.391-.13-.579-.194-.386-.134-.772-.268-1.154-.412s-.786-.291-1.172-.444c-.064-.023-.124-.051-.184-.074-.368-.143-.735-.3-1.1-.453a1.821,1.821,0,0,1-.174-.074c-.341-.139-.676-.287-1.011-.439-.1-.042-.193-.083-.289-.13-.271-.12-.538-.245-.8-.37-.248-.116-.5-.236-.74-.356-.1-.051-.2-.1-.3-.153-.294-.139-.584-.287-.873-.439l-.432-.222q-.421-.222-.841-.458c-.156-.083-.312-.167-.464-.254-.207-.116-.414-.231-.621-.356s-.4-.231-.607-.356c-.229-.129-.46-.268-.685-.412-.151-.088-.3-.18-.455-.282q-.4-.243-.8-.5c-.11-.069-.225-.143-.336-.217-.243-.157-.487-.319-.726-.486-.184-.12-.368-.245-.552-.375-.216-.148-.432-.3-.643-.458-.174-.12-.35-.245-.52-.375-.161-.111-.317-.231-.478-.356-.206-.148-.414-.3-.62-.463-.262-.2-.524-.4-.781-.61-.073-.056-.147-.111-.216-.171-.243-.194-.483-.388-.721-.592-.2-.153-.391-.319-.584-.486-.115-.092-.229-.19-.341-.287-.206-.176-.414-.356-.616-.537-.229-.2-.455-.407-.68-.615-.188-.167-.377-.338-.561-.513h0a42.806,42.806,0,0,1-2.5-14.467v-16.73a43.132,43.132,0,0,1,32.428-41.821,43.016,43.016,0,0,1,53.243,41.821v16.715a42.8,42.8,0,0,1-2.5,14.467Z" transform="translate(-299.733 -499.264)" fill="#ff9e9a"/>
        <path id="路径_22-2" data-name="路径 22" d="M373.018,541.027h-9.25c0-16.885,8.5-21.9,12.584-24.3l.382-.226c-.761-4.639-2.069-7.639-8.466-7.812a6.251,6.251,0,0,0-6.345,3.829,15.275,15.275,0,0,0-1.448,5.289l-9.239-.455c.3-6.348,4.284-18.266,17.281-17.909,15.158.41,16.88,12.287,17.528,16.759.034.232.066.454.1.662.681,4.427-2.933,6.558-5.092,7.832C377.472,526.8,373.018,529.427,373.018,541.027Z" transform="translate(-299.649 -499.43)" fill="#ff9e9a"/>
        <path id="路径_23-2" data-name="路径 23" d="M386.267,618.495l-18.963,38.3-18.963-38.3,9.431-45.257,2.054-9.861L364.067,543h8.381l3.714,20.29,1.785,9.759,3.316,18.121-6.471,1.258a3.006,3.006,0,1,0,1.014,5.926c.044-.008.089-.016.133-.026l6.41-1.244.86,4.708-6.262,1.216a3.016,3.016,0,0,0-2.433,2.951,3.153,3.153,0,0,0,.055.574,3.015,3.015,0,0,0,3.524,2.377l6.2-1.207Z" transform="translate(-299.652 -499.264)" fill="#ff9e9a"/>
      </g>
    </g>
    <g transform="matrix(1, 0, 0, 1, 0, 0)" filter="url(#这是一句文案)">
      <text id="这是一句文案-2" data-name="这是一句文案" transform="translate(136 643)" fill="#ff9e9a" font-size="15" font-family="MicrosoftJhengHeiUIRegular, Microsoft JhengHei UI" letter-spacing="0.177em"><tspan x="0" y="0">这</tspan><tspan y="0" font-family="YuGothicUI-Regular, Yu Gothic UI">是一句文案</tspan></text>
    </g>
  </g>
</svg>
